<svg width="65" height="65" fill="none" xmlns="http://www.w3.org/2000/svg"><path fill-rule="evenodd" clip-rule="evenodd" d="M58.107 14.668a2.032 2.032 0 0 1-.26 2.555L32.95 42.117a2.031 2.031 0 0 1-.921.528l-10.37 2.708a2.032 2.032 0 0 1-2.479-2.478l2.709-10.368c.079-.31.228-.6.436-.845L47.315 6.69a2.031 2.031 0 0 1 2.87 0l7.662 7.659c.098.097.185.204.26.32Zm-4.569 1.116L48.75 11l-23.07 23.07-1.692 6.48 6.48-1.692 23.07-23.073Z" fill="#CCC"/><path d="M53.194 46.475c.74-6.327.977-12.703.707-19.067a1.093 1.093 0 0 1 .317-.812l2.665-2.665a.536.536 0 0 1 .916.344c.501 7.56.31 15.149-.569 22.674-.64 5.476-5.037 9.769-10.49 10.378a129.381 129.381 0 0 1-28.48 0c-5.45-.61-9.85-4.902-10.49-10.378a124.372 124.372 0 0 1 0-28.898c.64-5.476 5.038-9.769 10.49-10.378 7.183-.797 14.42-.99 21.637-.577a.541.541 0 0 1 .346.92l-2.69 2.687a1.087 1.087 0 0 1-.803.317c-6.022-.205-12.05.026-18.038.69a7.827 7.827 0 0 0-6.906 6.815 120.308 120.308 0 0 0 0 27.95 7.827 7.827 0 0 0 6.906 6.814 125.2 125.2 0 0 0 27.579 0 7.823 7.823 0 0 0 6.904-6.814Z" fill="#CCC"/></svg>