<svg width="28" height="23" fill="none" xmlns="http://www.w3.org/2000/svg"><path fill-rule="evenodd" clip-rule="evenodd" d="M8.488 9.354c0-1.146.566-2.246 1.572-3.057 1.006-.81 2.37-1.266 3.793-1.266s2.788.456 3.794 1.266c1.006.811 1.572 1.91 1.572 3.057s-.566 2.247-1.572 3.057c-1.006.811-2.37 1.267-3.793 1.267s-2.788-.456-3.794-1.267c-1.006-.81-1.572-1.91-1.572-3.057Zm5.366-2.958c-.974 0-1.908.312-2.596.867-.689.554-1.075 1.307-1.075 2.091 0 .785.386 1.537 1.075 2.092.688.555 1.622.866 2.596.866.973 0 1.907-.311 2.595-.866.689-.555 1.075-1.307 1.075-2.092 0-.784-.386-1.537-1.075-2.091-.688-.555-1.622-.867-2.596-.867Z" fill="#CCC"/><path fill-rule="evenodd" clip-rule="evenodd" d="M4.28 8.314c.193-1.887 1.26-3.646 2.988-4.929 1.728-1.282 3.992-1.994 6.342-1.994h.488c2.35 0 4.613.712 6.341 1.994 1.729 1.283 2.795 3.042 2.988 4.93.215 2.1-.59 4.188-2.247 5.82l-5.414 5.335a2.469 2.469 0 0 1-.854.538c-.331.127-.693.192-1.059.192-.365 0-.727-.065-1.058-.192a2.469 2.469 0 0 1-.854-.538l-5.414-5.335c-1.656-1.632-2.462-3.72-2.247-5.82Zm9.33-5.558c-1.925 0-3.778.583-5.194 1.634C7.001 5.44 6.128 6.88 5.97 8.426c-.18 1.75.491 3.486 1.87 4.845l5.414 5.335c.072.072.164.13.268.17a.935.935 0 0 0 .665 0 .776.776 0 0 0 .269-.17l5.413-5.335c1.378-1.36 2.048-3.096 1.869-4.845-.159-1.545-1.032-2.986-2.448-4.037-1.415-1.05-3.27-1.633-5.194-1.633h-.486Z" fill="#CCC"/></svg>