<svg width="58" height="58" fill="none" xmlns="http://www.w3.org/2000/svg"><path d="M43.505 51.958c-1.676 0-3.102-.588-4.28-1.764-1.178-1.173-1.767-2.599-1.767-4.278 0-.322.029-.654.085-.998.055-.344.138-.668.249-.971l-18.71-11.025a6.403 6.403 0 0 1-2.064 1.559 5.77 5.77 0 0 1-2.518.56c-1.679 0-3.104-.586-4.277-1.759-1.176-1.174-1.764-2.6-1.764-4.277s.588-3.104 1.764-4.28c1.176-1.176 2.602-1.765 4.277-1.767.896 0 1.735.187 2.518.56a6.405 6.405 0 0 1 2.064 1.56l18.71-11.025a5.167 5.167 0 0 1-.249-.972 6.153 6.153 0 0 1-.084-.998c0-1.679.587-3.104 1.761-4.277 1.173-1.176 2.598-1.764 4.275-1.764 1.678 0 3.104.587 4.28 1.761 1.176 1.175 1.765 2.6 1.767 4.275.001 1.676-.587 3.103-1.764 4.28-1.173 1.178-2.6 1.767-4.278 1.767a5.772 5.772 0 0 1-2.518-.56 6.404 6.404 0 0 1-2.064-1.56L20.208 27.03c.112.303.195.625.25.967.056.343.084.674.084.993 0 .32-.028.654-.085 1.003a5.33 5.33 0 0 1-.249.976l18.71 11.025a6.404 6.404 0 0 1 2.064-1.559 5.77 5.77 0 0 1 2.518-.56c1.679 0 3.105.587 4.278 1.762 1.176 1.172 1.764 2.597 1.764 4.275 0 1.677-.587 3.104-1.76 4.28-1.172 1.176-2.598 1.765-4.277 1.766Zm-.005-36.25c.994 0 1.847-.355 2.56-1.066.712-.71 1.067-1.563 1.065-2.559-.001-.995-.357-1.849-1.066-2.56-.709-.71-1.562-1.065-2.559-1.065-.997 0-1.85.355-2.56 1.066-.708.71-1.063 1.564-1.065 2.56-.001.995.354 1.848 1.066 2.558.712.71 1.565 1.066 2.56 1.066Zm-29 16.917c.994 0 1.847-.355 2.56-1.066.712-.71 1.067-1.564 1.065-2.56-.001-.995-.357-1.848-1.066-2.558-.709-.71-1.562-1.066-2.559-1.066-.997 0-1.85.355-2.56 1.066-.708.71-1.063 1.563-1.065 2.559-.001.995.354 1.849 1.066 2.56.712.71 1.565 1.065 2.56 1.065Zm29 16.916c.994 0 1.847-.355 2.56-1.065.712-.71 1.067-1.564 1.065-2.56-.001-.995-.357-1.848-1.066-2.559-.709-.71-1.562-1.066-2.559-1.066-.997 0-1.85.356-2.56 1.066-.708.71-1.063 1.564-1.065 2.56-.001.995.354 1.848 1.066 2.559.712.71 1.565 1.066 2.56 1.066Z" fill="#CCC"/></svg>