<svg width="96" height="69" fill="none" xmlns="http://www.w3.org/2000/svg"><g clip-path="url('#clip0_2001_213')"><path d="M24.424 55.347h27.83v5.65h-27.83c-4.413 0-7.952-2.514-7.952-5.65V10.149c0-1.498.838-2.935 2.33-3.995 1.49-1.06 3.513-1.654 5.622-1.654h47.71c2.108 0 4.13.595 5.622 1.654 1.49 1.06 2.329 2.497 2.329 3.995v24.124l-5.964-2.316-1.988.791V10.15H52.254v22.6l-9.94-6.357-9.939 6.356V10.15h-7.951v45.198Zm71.564-8.475L74.12 38.398l-21.867 8.474 21.867 8.475 21.867-8.475Zm-35.782 5.904v5.65l13.915 5.395 13.915-5.395v-5.65l-13.915 5.396-13.915-5.396Z" fill="#000"/></g><defs><clipPath id="clip0_2001_213"><path fill="#fff" transform="translate(.251 .432)" d="M0 0h95.419v67.797H0z"/></clipPath></defs></svg>