<svg width="37" height="27" fill="none" xmlns="http://www.w3.org/2000/svg"><path d="M12.025 2.71h12.95c4.933 0 8.942 2.789 8.942 6.22v9.01c0 1.649-.943 3.231-2.62 4.398-1.676 1.166-3.95 1.822-6.322 1.822h-12.95c-4.933 0-8.942-2.789-8.942-6.22V8.93c0-1.65.942-3.231 2.62-4.398 1.676-1.166 3.95-1.822 6.322-1.822Zm-.308 2.145c-1.472 0-2.884.407-3.925 1.131-1.04.724-1.625 1.706-1.625 2.73v9.438c0 2.134 2.482 3.86 5.55 3.86h13.566c1.472 0 2.884-.406 3.925-1.13 1.04-.724 1.625-1.706 1.625-2.73V8.716c0-2.134-2.482-3.86-5.55-3.86H11.717Zm14.877 1.609c.51 0 1 .141 1.362.393.362.251.565.592.565.948 0 .355-.203.696-.565.947-.361.252-.851.393-1.362.393-.511 0-1.002-.141-1.363-.393-.361-.25-.564-.592-.564-.947 0-.356.203-.697.564-.948.361-.252.852-.393 1.363-.393ZM18.5 8.073c2.044 0 4.005.565 5.45 1.57 1.446 1.006 2.258 2.37 2.258 3.792 0 1.422-.812 2.786-2.257 3.792-1.446 1.005-3.407 1.57-5.451 1.57-2.044 0-4.005-.565-5.45-1.57-1.446-1.006-2.258-2.37-2.258-3.792 0-1.422.812-2.786 2.257-3.792 1.446-1.005 3.407-1.57 5.45-1.57Zm0 2.145c-1.227 0-2.403.338-3.27.942-.868.603-1.355 1.422-1.355 2.275s.487 1.672 1.354 2.275c.868.603 2.044.942 3.27.942 1.228 0 2.404-.339 3.271-.942.868-.603 1.355-1.422 1.355-2.275s-.487-1.672-1.355-2.275c-.867-.604-2.043-.942-3.27-.942Z" fill="#000"/></svg>