<svg width="36" height="26" fill="none" xmlns="http://www.w3.org/2000/svg"><path d="M33.69 6.348a17.39 17.39 0 0 1-3.69.72c1.32-.553 2.34-1.43 2.82-2.484-1.245.522-2.625.887-4.08 1.096-1.185-.897-2.85-1.42-4.74-1.42-3.525 0-6.405 2.004-6.405 4.477 0 .355.06.7.165 1.023C12.42 9.572 7.665 7.788 4.5 5.085c-.555.658-.87 1.43-.87 2.244 0 1.555 1.125 2.932 2.865 3.715a8.649 8.649 0 0 1-2.925-.522v.031c0 2.17 2.22 3.986 5.16 4.393a8.984 8.984 0 0 1-2.895.073c.407.89 1.205 1.668 2.282 2.226 1.076.558 2.376.867 3.718.884-2.274 1.252-5.094 1.93-7.995 1.92-.51 0-1.02-.021-1.53-.063C5.16 21.26 8.55 22 12.18 22 24 22 30.495 15.176 30.495 9.26c0-.2 0-.387-.015-.585 1.26-.626 2.34-1.42 3.21-2.327Z" fill="#000"/></svg>