<svg width="50" height="36" fill="none" xmlns="http://www.w3.org/2000/svg"><path d="m20.833 22.478 10.813-4.348-10.813-4.347v8.695ZM44.917 11.13c.27.682.458 1.595.583 2.754.146 1.16.208 2.16.208 3.03l.125 1.216c0 3.174-.333 5.508-.916 7-.521 1.305-1.73 2.145-3.604 2.508-.98.188-2.771.319-5.521.406-2.709.101-5.188.145-7.48.145L25 28.274c-8.73 0-14.167-.231-16.312-.637-1.875-.363-3.084-1.203-3.605-2.508-.27-.68-.458-1.594-.583-2.753a24.355 24.355 0 0 1-.208-3.03l-.125-1.216c0-3.174.333-5.508.916-7 .521-1.305 1.73-2.145 3.605-2.508.979-.188 2.77-.319 5.52-.406 2.709-.101 5.188-.144 7.48-.144L25 7.986c8.73 0 14.167.231 16.313.637 1.875.363 3.083 1.203 3.604 2.508Z" fill="#000"/></svg>