<svg width="28" height="23" fill="none" xmlns="http://www.w3.org/2000/svg"><g clip-path="url('#clip0_2001_307')"><path d="m23.21 13.803-5.833-1.77a2.482 2.482 0 0 0-.84-.089 2.309 2.309 0 0 0-.8.192.604.604 0 0 0-.07.035l-3.049 1.755a.321.321 0 0 1-.207.005c-1.96-.64-3.99-2.006-4.94-3.314a.12.12 0 0 1-.024-.07.12.12 0 0 1 .024-.07l2.602-2.09a.955.955 0 0 0 .328-.591.843.843 0 0 0-.137-.567L7.668 3.287c-.148-.232-.403-.426-.727-.553a2.438 2.438 0 0 0-1.071-.147c-1.614.143-3.095.68-4.168 1.509C.63 4.925.042 5.99.044 7.09c0 6.545 7.867 11.87 17.537 11.87 1.627.002 3.2-.397 4.425-1.123 1.224-.725 2.017-1.728 2.23-2.82.045-.25-.03-.504-.215-.722-.185-.22-.47-.392-.81-.493Zm-5.63 4.155c-8.852 0-16.054-4.875-16.054-10.867-.004-.857.454-1.687 1.287-2.333.833-.646 1.986-1.064 3.242-1.177h.028c.05 0 .098.011.139.03.04.02.071.048.088.08l2.606 3.937a.124.124 0 0 1 .023.07.124.124 0 0 1-.023.07L6.31 9.862a.948.948 0 0 0-.332.612.857.857 0 0 0 .167.584c1.095 1.518 3.355 3.036 5.622 3.777a2.462 2.462 0 0 0 1.7-.084 1.02 1.02 0 0 0 .07-.035l3.048-1.755a.324.324 0 0 1 .198-.008l5.834 1.769a.244.244 0 0 1 .115.067c.027.03.04.065.035.1-.166.85-.784 1.631-1.738 2.196-.954.565-2.18.875-3.447.873Z" fill="#CCC"/></g><defs><clipPath id="clip0_2001_307"><path fill="#fff" transform="translate(.044 .238)" d="M0 0h27.108v21.843H0z"/></clipPath></defs></svg>