<svg width="28" height="22" fill="none" xmlns="http://www.w3.org/2000/svg"><path d="M13.727 8.2c-.899 0-1.76.288-2.396.8-.636.512-.993 1.206-.993 1.93 0 .725.357 1.42.993 1.931.635.512 1.497.8 2.396.8.899 0 1.76-.288 2.396-.8.635-.512.992-1.206.992-1.93 0-.725-.357-1.42-.992-1.931-.636-.512-1.497-.8-2.396-.8Zm0-1.82c1.498 0 2.934.48 3.993 1.333 1.06.853 1.655 2.01 1.655 3.218 0 1.206-.596 2.364-1.655 3.217-1.059.854-2.495 1.333-3.993 1.333-1.498 0-2.934-.48-3.994-1.333-1.059-.853-1.654-2.01-1.654-3.217 0-1.207.595-2.365 1.654-3.218 1.06-.854 2.496-1.333 3.994-1.333Zm7.342-.228c0 .302-.149.591-.414.805a1.6 1.6 0 0 1-.998.333 1.6 1.6 0 0 1-.998-.333c-.265-.214-.414-.503-.414-.805 0-.301.149-.59.413-.804a1.6 1.6 0 0 1 .999-.333c.374 0 .733.12.998.333.265.213.414.503.414.804ZM13.727 3.65c-2.795 0-3.25.007-4.55.053-.886.034-1.48.13-2.032.302a3.42 3.42 0 0 0-1.22.64 2.655 2.655 0 0 0-.795.983c-.214.446-.333.924-.374 1.637-.058 1.004-.066 1.356-.066 3.667 0 2.252.008 2.619.065 3.667.042.712.16 1.192.374 1.635.192.396.418.68.793.983.38.306.734.489 1.22.64.558.174 1.152.27 2.033.303 1.247.047 1.683.053 4.55.053 2.796 0 3.252-.007 4.552-.053.883-.034 1.477-.13 2.03-.301a3.45 3.45 0 0 0 1.22-.64c.38-.306.607-.59.794-.983.215-.448.335-.927.375-1.638.06-1.004.066-1.357.066-3.666 0-2.252-.008-2.62-.066-3.667-.041-.712-.161-1.193-.375-1.637a2.674 2.674 0 0 0-.794-.983 3.415 3.415 0 0 0-1.22-.64c-.553-.173-1.147-.27-2.03-.302-1.246-.047-1.682-.053-4.551-.053m0-1.82c3.069 0 3.452.01 4.657.055 1.202.045 2.022.197 2.741.423a5.784 5.784 0 0 1 2.002 1.05 4.507 4.507 0 0 1 1.302 1.612c.279.58.469 1.24.525 2.21.053.97.068 1.279.068 3.752 0 2.472-.011 2.78-.068 3.751-.056.97-.246 1.63-.525 2.21a4.484 4.484 0 0 1-1.302 1.613 5.827 5.827 0 0 1-2.002 1.05c-.72.224-1.54.377-2.741.422-1.205.043-1.588.055-4.657.055-3.07 0-3.452-.01-4.657-.055-1.202-.045-2.02-.198-2.742-.423a5.795 5.795 0 0 1-2.001-1.05 4.503 4.503 0 0 1-1.302-1.612c-.28-.58-.47-1.24-.526-2.21-.054-.97-.067-1.279-.067-3.752 0-2.472.011-2.78.067-3.751.057-.97.246-1.63.526-2.21a4.48 4.48 0 0 1 1.302-1.613 5.804 5.804 0 0 1 2.001-1.05c.72-.225 1.539-.377 2.742-.422 1.206-.043 1.589-.055 4.658-.055" fill="#CCC"/></svg>