<svg width="23" height="27" fill="none" xmlns="http://www.w3.org/2000/svg"><path d="m21.728 22.573-5.003-4.97a2.553 2.553 0 0 0-.813-.526 2.413 2.413 0 0 0-.931-.181.697.697 0 0 0-.091.005l-4.124.489a.334.334 0 0 1-.216-.099c-1.656-1.722-2.975-4.316-3.215-6.3a.166.166 0 0 1 .015-.093.165.165 0 0 1 .064-.068l3.852-1.099a1.283 1.283 0 0 0 .67-.516c.135-.21.196-.459.178-.721l-.45-5.845c-.021-.342-.174-.694-.437-1.002a2.518 2.518 0 0 0-1.019-.709C8.468.292 6.642.165 5.073.581c-1.57.416-2.775 1.346-3.391 2.616-3.685 7.538 1.408 17.624 11.353 22.485 1.672.82 3.515 1.152 5.183.932 1.668-.22 3.047-.976 3.88-2.127.188-.265.253-.595.186-.94-.066-.345-.261-.686-.556-.974ZM13.6 24.527C4.497 20.077-.166 10.842 3.207 3.942c.478-.99 1.415-1.715 2.636-2.04 1.221-.325 2.642-.227 3.997.274l.03.014c.05.026.094.063.125.106.03.042.047.09.046.135l.464 5.844a.172.172 0 0 1-.016.092.172.172 0 0 1-.063.07l-3.86 1.101a1.276 1.276 0 0 0-.686.537 1.195 1.195 0 0 0-.157.756c.272 2.3 1.742 5.183 3.656 7.177a2.539 2.539 0 0 0 1.796.759l.09-.006 4.123-.49a.339.339 0 0 1 .208.09l5.005 4.971c.041.04.07.087.08.136a.174.174 0 0 1-.02.132c-.65.896-1.724 1.485-3.024 1.655-1.3.17-2.734-.088-4.036-.728Z" fill="#000"/></svg>